<?xml version="1.0" standalone="no"?>
<!DOCTYPE svg PUBLIC "-//W3C//DTD SVG 20010904//EN"
 "http://www.w3.org/TR/2001/REC-SVG-20010904/DTD/svg10.dtd">
<svg version="1.0" xmlns="http://www.w3.org/2000/svg"
 width="700.000000pt" height="700.000000pt" viewBox="0 0 700.000000 700.000000"
 preserveAspectRatio="xMidYMid meet">
<metadata>
Created by potrace 1.14, written by Peter Selinger 2001-2017
</metadata>
<g transform="translate(0.000000,700.000000) scale(0.100000,-0.100000)"
fill="#000000" stroke="none">
<path d="M0 3500 l0 -3500 3500 0 3500 0 0 3500 0 3500 -3500 0 -3500 0 0
-3500z m5974 1390 c109 -28 190 -74 272 -155 77 -76 113 -132 153 -234 l26
-66 3 -1232 c3 -1357 5 -1297 -59 -1426 -78 -159 -214 -273 -384 -323 -65 -20
-286 -26 -358 -11 -45 10 -105 60 -123 104 -21 48 -20 1233 0 1233 37 0 164
78 232 142 156 148 222 306 211 507 -7 141 -48 263 -121 361 l-26 34 40 41
c42 42 48 63 28 83 -20 20 -41 14 -84 -29 l-41 -40 -31 26 c-16 14 -55 37 -85
50 -147 68 -312 53 -443 -40 l-49 -35 -40 40 c-42 42 -63 48 -83 28 -20 -20
-14 -41 28 -83 l39 -40 -31 -45 c-146 -213 -157 -489 -27 -707 69 -115 226
-249 332 -283 l37 -12 -2 -603 -3 -604 -30 -31 c-73 -77 -180 -103 -420 -103
-184 0 -249 10 -306 48 -49 32 -62 63 -105 265 -42 199 -45 157 26 490 22 107
45 205 50 217 8 20 6 22 -45 28 -63 8 -441 3 -449 -6 -7 -7 34 -215 83 -425
l28 -121 -28 -199 c-16 -117 -35 -212 -45 -231 -30 -58 -67 -67 -259 -67 -182
0 -226 8 -264 48 -28 30 -37 61 -66 241 -56 348 -75 612 -75 1072 0 378 8 578
45 1078 26 357 25 367 -37 405 -39 24 -116 27 -156 6 -15 -8 -38 -26 -52 -41
-24 -25 -25 -32 -25 -148 0 -67 6 -295 14 -507 21 -543 1 -1112 -60 -1720 -33
-342 -39 -359 -122 -399 -99 -47 -353 -48 -479 -1 -59 22 -120 77 -138 125 -6
16 -11 57 -11 90 0 33 45 402 101 820 56 418 101 778 101 800 0 22 -13 81 -30
132 -76 231 -204 411 -371 519 l-70 45 0 99 0 100 -260 0 -260 0 0 -104 0
-104 -52 -30 c-180 -103 -333 -331 -403 -600 -13 -49 -8 -102 90 -950 58 -493
107 -917 111 -941 l6 -44 -179 6 c-191 5 -239 14 -345 68 -131 66 -243 194
-296 339 l-27 75 -3 1225 c-2 873 0 1242 8 1285 42 225 246 429 475 475 22 4
1120 8 2441 9 2360 1 2402 1 2478 -19z"/>
<path d="M1088 4849 c-116 -17 -224 -76 -314 -170 -60 -64 -94 -121 -126 -209
l-23 -65 0 -1225 0 -1225 22 -70 c60 -190 208 -331 398 -380 38 -10 106 -15
188 -15 l128 0 -6 43 c-36 261 -205 1771 -200 1799 16 110 93 297 170 413 55
83 162 192 234 240 l60 40 1 107 c0 96 2 108 19 118 12 6 125 10 296 10 171 0
284 -4 296 -10 17 -10 19 -22 19 -118 l0 -107 48 -30 c76 -47 203 -182 260
-274 61 -99 102 -194 137 -317 l26 -89 -106 -795 c-68 -507 -105 -816 -103
-853 9 -126 105 -177 335 -177 137 0 205 14 245 49 27 24 31 35 43 136 42 345
73 787 84 1215 9 308 5 571 -15 1110 -7 197 -3 234 38 285 43 55 143 85 216
65 53 -14 117 -70 132 -115 8 -25 5 -114 -14 -381 -64 -893 -60 -1478 14
-2004 25 -178 47 -295 60 -319 17 -32 67 -41 231 -41 164 0 201 6 218 37 5 11
22 104 37 208 l27 188 -22 101 c-60 275 -91 429 -91 456 0 19 7 33 20 40 61
32 500 32 560 0 29 -15 27 -30 -40 -346 l-51 -242 40 -183 c36 -168 42 -186
69 -210 47 -42 119 -52 327 -46 207 6 276 21 331 72 l34 32 0 569 0 569 -75
39 c-193 98 -354 323 -383 532 -20 143 19 331 94 458 l35 59 -31 32 c-51 53
-37 127 30 155 36 15 75 2 110 -35 l22 -23 45 29 c79 49 137 64 253 64 116 0
174 -15 253 -65 l45 -28 19 20 c34 38 70 50 109 38 69 -23 86 -95 34 -153
l-30 -35 40 -68 c57 -101 91 -226 92 -349 2 -123 -12 -184 -67 -300 -73 -152
-208 -289 -342 -347 l-53 -23 0 -570 c0 -638 -2 -622 70 -657 46 -24 258 -25
345 -3 192 49 342 194 402 390 17 57 18 124 18 1280 l0 1220 -23 70 c-31 93
-64 148 -130 217 -68 71 -130 112 -224 146 l-73 27 -2390 1 c-1314 1 -2415 -2
-2447 -7z"/>
</g>
</svg>
