<svg xmlns="http://www.w3.org/2000/svg" width="310.5" height="189.111" viewBox="0 0 310.5 189.111">
  <g id="Logo_tema-7" transform="translate(0 -32.77)">
    <path id="Path_3" data-name="Path 3" d="M337.985,211.56H90.472c-17.1,0-30.969,14.3-30.972,31.94V367.7c0,17.649,13.869,31.951,30.978,31.951h11.366L90.387,298.22c3.4-17.692,12.847-32.034,25.14-38.642V247.724a.157.157,0,0,1,.154-.159h30.264a.157.157,0,0,1,.154.159v11.864c12.293,6.591,21.747,20.949,25.14,38.642,0,0-10.828,84.177-11.047,85.786-1.23,9.112,2,15.638,19.793,15.638,8.458,0,15.089-1.428,15.777-7.415a746.785,746.785,0,0,0,3.68-136.4,34.81,34.81,0,0,1,.533-7.69,9.487,9.487,0,0,1,7.457-6.042c5.859-1.1,11.185,3.3,10.653,8.788-3.622,48.04-6.924,94.608,1.688,141.549,1.225,6.674,3.089,7.212,14.488,7.212,10.013,0,12.783-.11,13.891-5.158.123-.577,2.823-20.554,2.823-20.554s-6.887-30.831-6.248-31.21c2.056-1.219,25.172-2.236,29.609.071.282.143-6.194,30.864-6.194,30.864s3.766,18.049,3.862,18.56c1.278,6.773,7.835,7.41,19.036,7.426,15.4,0,22.53-3.417,22.53-9.228V328.4c-10.525-3.18-24.73-17.368-24.73-34.484a39.553,39.553,0,0,1,7.766-24.02l-2.887-2.977a3.169,3.169,0,0,1-.245-.225,3.55,3.55,0,0,1,.229-4.894,3.3,3.3,0,0,1,4.746-.242l.037.044h0l3.052,3.147a24.494,24.494,0,0,1,32.027-.033l2.812-2.9a3.332,3.332,0,0,1,.224-.258,3.3,3.3,0,0,1,4.746.242,3.543,3.543,0,0,1,.229,4.889.247.247,0,0,1-.037.038h0l-3.036,3.131a39.535,39.535,0,0,1,7.8,24.064c0,17.22-13.848,31.54-24.735,34.561v61.854c0,6.954,4.437,9.338,10.653,9.338h5.715c17.1,0,30.969-14.3,30.972-31.941V243.506c0-17.622-13.837-31.916-30.924-31.946Z" transform="translate(-59 -178.29)" fill="none" stroke="#bf962c" stroke-miterlimit="10" stroke-width="1"/>
    <path id="Path_4" data-name="Path 4" d="M101.85,399.641H90.477c-17.106,0-30.977-14.3-30.977-31.944V243.5c0-17.64,13.868-31.941,30.977-31.944H338.023c17.1,0,30.974,14.3,30.977,31.938V367.692c0,17.648-13.871,31.949-30.982,31.949h-5.806" transform="translate(-59 -178.29)" fill="none" stroke="#bf962c" stroke-miterlimit="10" stroke-width="1"/>
  </g>
</svg>
