<svg id="Layer_4" data-name="Layer 4" xmlns="http://www.w3.org/2000/svg" width="868" height="700" viewBox="0 0 868 700"><defs><style>.cls-1{fill:none;stroke:#000;stroke-miterlimit:10;}</style></defs><path class="cls-1" d="M668.11,178.79H203.42a58.15,58.15,0,0,0-58.16,58.15V463.06a58.15,58.15,0,0,0,58.16,58.15h21.34L203.25,336.55c6.38-32.21,24.12-58.31,47.2-70.34V244.63a.29.29,0,0,1,.29-.29h56.82a.29.29,0,0,1,.29.29v21.58c23.09,12,40.83,38.13,47.21,70.34,0,0-20.34,153.25-20.74,156.18-2.32,16.61,3.74,28.48,37.15,28.48,15.89,0,28.33-2.59,29.62-13.49C411,424.65,413.76,342.87,408,259.38c0-5,0-10,1-14,2-6,8-10,14-11,11-2,21,6,20,16-6.8,87.46-13,172.24,3.17,257.7,2.3,12.15,5.8,13.13,27.21,13.13,18.79,0,24-.19,26.07-9.38.23-1.05,5.3-37.42,5.3-37.42S491.82,418.28,493,417.59c3.87-2.23,47.26-4.07,55.59.12.53.27-11.63,56.2-11.63,56.2s7.08,32.86,7.26,33.78c2.4,12.34,14.7,13.49,35.73,13.52,28.91,0,42.3-6.22,42.3-16.8,0-2.35,0-112.93,0-112.93-19.76-5.79-46.43-31.61-46.43-62.77,0-16.92,5.54-32.3,14.58-43.74l-5.41-5.41a4.69,4.69,0,0,1-.47-.42c-2.34-2.34-2.15-6.33.43-8.91s6.57-2.77,8.91-.43c0,0,0,.05.07.07h0l5.73,5.73a47,47,0,0,1,60.13-.06l5.28-5.29a4.58,4.58,0,0,1,.42-.46c2.34-2.34,6.33-2.15,8.91.43s2.77,6.57.43,8.91l-.07.06h0l-5.7,5.7c9.07,11.45,14.64,26.85,14.64,43.81,0,31.35-25.95,57.41-46.43,62.91,0,0,0,111.35,0,112.61,0,12.66,8.33,17,20,17h10.73a58.15,58.15,0,0,0,58.15-58.15V236.94A58.15,58.15,0,0,0,668.11,178.79Z"/><path class="cls-1" d="M224.8,521.21H203.42a58.15,58.15,0,0,1-58.16-58.15V236.94a58.15,58.15,0,0,1,58.16-58.15H668.11a58.15,58.15,0,0,1,58.15,58.15V463.06a58.15,58.15,0,0,1-58.15,58.15H657.2"/></svg>