<svg id="Layer_4" data-name="Layer 4" xmlns="http://www.w3.org/2000/svg" width="700" height="700" viewBox="0 0 700 700"><defs><style>.cls-1{fill:#1f2735;stroke:#000;}.cls-1,.cls-2{stroke-miterlimit:10;}.cls-2{fill:none;stroke:#bf962c;stroke-width:5px;}</style></defs><rect class="cls-1" width="700" height="700"/><path class="cls-2" d="M582.35,211.56H117.65A58.16,58.16,0,0,0,59.5,269.72V495.83A58.16,58.16,0,0,0,117.65,554H139L117.49,369.33c6.38-32.21,24.12-58.32,47.2-70.35V277.4a.29.29,0,0,1,.29-.29H221.8a.29.29,0,0,1,.29.29V299c23.08,12,40.83,38.14,47.2,70.35,0,0-20.33,153.25-20.74,156.18C246.24,542.12,252.3,554,285.71,554c15.88,0,28.33-2.6,29.62-13.5,9.87-83.06,12.67-164.85,6.91-248.33,0-5,0-10,1-14,2-6,8-10,14-11,11-2,21,6,20,16-6.8,87.46-13,172.24,3.17,257.7,2.3,12.15,5.8,13.13,27.2,13.13,18.8,0,24-.2,26.08-9.39.23-1.05,5.3-37.42,5.3-37.42s-12.93-56.13-11.73-56.82c3.86-2.22,47.26-4.07,55.59.13.53.26-11.63,56.19-11.63,56.19s7.07,32.86,7.25,33.79c2.4,12.33,14.71,13.49,35.74,13.52,28.91,0,42.3-6.22,42.3-16.8,0-2.36,0-112.93,0-112.93-19.76-5.79-46.43-31.62-46.43-62.78,0-16.91,5.54-32.29,14.58-43.73l-5.42-5.42a5.87,5.87,0,0,1-.46-.41c-2.34-2.34-2.15-6.33.43-8.91s6.57-2.78,8.91-.44l.07.08h0l5.73,5.73a47.08,47.08,0,0,1,60.13-.06l5.28-5.28a6.14,6.14,0,0,1,.42-.47c2.34-2.34,6.33-2.14,8.91.44s2.77,6.57.43,8.9a.46.46,0,0,1-.07.07h0l-5.7,5.7c9.08,11.45,14.65,26.86,14.65,43.81,0,31.35-26,57.42-46.44,62.92,0,0,0,111.35,0,112.61,0,12.66,8.33,17,20,17h10.73a58.16,58.16,0,0,0,58.15-58.16V269.72A58.16,58.16,0,0,0,582.35,211.56Z"/><path class="cls-2" d="M139,554H117.65A58.16,58.16,0,0,1,59.5,495.83V269.72a58.16,58.16,0,0,1,58.15-58.16h464.7a58.16,58.16,0,0,1,58.15,58.16V495.83A58.16,58.16,0,0,1,582.35,554H571.44"/></svg>